<?xml version="1.0" encoding="utf-8"?>
<!-- Generator: Adobe Illustrator 19.2.1, SVG Export Plug-In . SVG Version: 6.00 Build 0)  -->
<svg version="1.1" id="Layer_1" xmlns="http://www.w3.org/2000/svg" xmlns:xlink="http://www.w3.org/1999/xlink" x="0px" y="0px"
	 viewBox="0 0 70.5 44.7" enable-background="new 0 0 70.5 44.7" xml:space="preserve">
<g>
	<path d="M16,18.6c0.2,0,0.2,0.1,0.2,0.2l0,2.4c0,0.1,0,0.1-0.1,0.1l-2.9,0c-0.1,0-0.1,0-0.1-0.1l0-1.1l-4.9,0.1l0,0.8l2.8,0
		c0.1,0,0.1,0,0.1,0.1l0,1.3c0,0.1-0.1,0.1-0.2,0.1l-2.7,0l0,0.9l5-0.1l0-1c0-0.1,0-0.2,0.2-0.2l3.1,0c0.1,0,0.1,0,0.1,0.2l0,2.5
		c0,0.1,0,0.1-0.2,0.1L1.8,25.2c-0.1,0-0.2,0-0.2-0.1l0-1.4c0-0.1,0-0.1,0.1-0.1l1.9,0l0-3.2l-2,0c-0.1,0-0.1,0-0.1-0.1l0-1.5
		c0,0,0.1-0.1,0.2-0.1L16,18.6z"/>
	<path d="M18,8.4c0.4-0.4,1.4-0.7,1.8-0.2c0.4,0.5,0.2,1.1-0.3,1.5c-0.4,0.4-0.9,0.5-1.2,0.5c-0.3,0-0.5,0.1-0.7,0.3
		c-0.3,0.3-0.6,1-0.2,1.4l0.7,0.7l1.1-1c0,0,0.1,0,0.1,0l0.8,0.8c0,0,0,0.1,0,0.2l-4.8,4.4c0,0-0.1,0-0.1,0l-0.8-0.8
		c0,0,0-0.1,0-0.1l1.1-1l-1.3-1.4l-1.1,1c-0.1,0.1-0.1,0.1-0.2,0l-0.7-0.8c-0.1-0.1-0.1-0.2,0-0.2l3.7-3.3c0.1,0,0.1,0,0.1,0
		l0.5,0.6c0-0.5,0.3-1.5,1.1-2.1L18,8.4z"/>
	<path d="M27.3,7.2c0.1,0,0.1,0,0.1,0l0.5,1c0,0.1,0,0.1-0.1,0.1l-5.9,2.9c0,0-0.1,0-0.1-0.1l-0.5-1c0,0,0-0.1,0.1-0.1l1.4-0.7
		l-0.8-1.7l-1.3,0.6c-0.1,0-0.2,0-0.2,0l-0.5-1c0-0.1,0-0.2,0.1-0.2l4.5-2.2c0.1,0,0.1,0,0.1,0L26,7.8L27.3,7.2z M23.3,3.4
		c0.1,0,0.2,0,0.2,0l0.5,1.1c0,0,0,0.1-0.1,0.2l-2.5,1.2c-0.1,0-0.1,0-0.1,0l-0.6-1.1c0,0,0-0.1,0.1-0.1L23.3,3.4z"/>
	<path d="M32.4,7.5c-1.3,0.2-2.3,0-2.7-0.1c-0.2-0.1-1.8-0.5-1.9-1.5c-0.1-1,0.7-1.7,1.2-2c0.9-0.6,2.2-0.8,3-1l1.3-0.2
		c1-0.1,3.8-0.2,4,0.9c0.1,0.4-0.4,0.8-1.2,0.9c-0.5,0.1-1.4-0.1-2-0.4C33.6,4,33.3,4,33,4.1c-0.4,0-1.5,0.3-1.4,1.2
		c0.1,0.9,1.3,0.8,1.8,0.8c1.1-0.1,1.6-0.4,2-0.9c0,0,0.1-0.1,0.1-0.1l1.6-0.2c0.1,0,0.1,0.1,0.1,0.1C37,5.7,36,7,33.6,7.3L32.4,7.5
		z"/>
	<path d="M55.5,9.7c0.1,0,0.1,0,0.1,0.1l0,1.5c0,0-0.1,0-0.1,0l-8.6-0.2c0,0-0.1,0-0.1-0.1l0-1.3c0,0,0-0.1,0.1-0.1l2,0l0.1-3.3
		l-2.3-0.1l0,1.1c0,0.1-0.1,0.1-0.1,0.1l-2.9-0.1c-0.1,0-0.1,0-0.1-0.1l0.1-2.5c0-0.1,0-0.1,0.1-0.1l14.9,0.3c0.1,0,0.2,0,0.1,0.2
		l-0.1,2.4c0,0.1,0,0.1-0.1,0.1L56,7.7c-0.1,0-0.1,0-0.1-0.1l0-1.1l-2.5-0.1l-0.1,3.3L55.5,9.7z"/>
	<path d="M61.1,19.8c0,0-0.3,0.4,0,0.8c0.4,0.5,0.9,0.2,0.9,0.1c0,0,0.1,0,0.1,0l0.6,0.9c0,0,0,0,0,0.1c-1.2,0.9-2.4,0.2-2.9-0.5
		l-1.4-1.9c-0.5-0.6-0.5-1.4-0.3-1.8c-0.7,0-1.9-1.1-2.1-1.4c-0.6-0.8-2-2.9-1-3.6c1-0.7,2.8,1.4,3,1.7l0.9,1.2
		c0.2,0.3,0.8,0.9,1,0.8c0.2-0.2,0.1-0.6-0.2-0.9l-0.6-0.9c-0.2-0.3-0.9-0.6-1.1-0.7c-0.2-0.1-1-0.8-1.2-1c-0.2-0.2-0.6-1.1-0.1-1.4
		c0.8-0.6,1.9,0.8,3.5,3c1.8,2.5,2.8,4.1,1.7,4.9L61.1,19.8z M59.5,16.4L59.5,16.4c-0.2,0-0.6-0.1-0.9-0.3c-0.5-0.4-0.8-0.8-1.1-0.6
		c-0.2,0.1,0.1,0.4,0.1,0.5c0.4,0.6,1,1,1.5,0.6L59.5,16.4z"/>
	<path d="M63.9,29.3c0,0.1,0,0.1-0.1,0.1l-1.1,0.3c-0.1,0-0.1,0-0.1-0.1l-1.7-6.3c0,0,0.1-0.1,0.1-0.1l1.1-0.3c0,0,0.1,0,0.1,0.1
		l0.4,1.5l1.9-0.5L64,22.5c0-0.1,0-0.2,0-0.2l1-0.3c0.1,0,0.2,0,0.2,0.1l1.3,4.8c0,0.1,0,0.1-0.1,0.1l-3,0.8L63.9,29.3z M68.3,26.1
		c0,0.1,0,0.2-0.1,0.2l-1.1,0.3c0,0-0.1,0-0.1-0.1l-0.7-2.6c0-0.1,0-0.1,0-0.1l1.2-0.3c0,0,0.1,0,0.1,0.1L68.3,26.1z"/>
</g>
<g>
	<ellipse fill="#7C7C7C" cx="57.8" cy="33.5" rx="2.4" ry="2.3"/>
	<g>
		<g>
			<g>
				<g>
					<path fill="#8D8D8D" d="M60.1,33.5C60.1,33.5,60.2,33.5,60.1,33.5L60.1,33.5L60.1,33.5z"/>
					<path fill="#8D8D8D" d="M60.2,33.4c0,0-0.1,0-0.1,0C60.1,33.4,60.1,33.4,60.2,33.4C60.2,33.4,60.2,33.4,60.2,33.4
						C60.1,33.5,60.1,33.5,60.2,33.4C60.2,33.5,60.2,33.4,60.2,33.4C60.2,33.4,60.2,33.4,60.2,33.4z"/>
					<path fill="#8D8D8D" d="M59.2,31.6L59.2,31.6L59.2,31.6z"/>
					<path fill="#8D8D8D" d="M58,31.1C58,31.1,58,31.1,58,31.1C58,31.1,58,31.1,58,31.1z"/>
					<path fill="#8D8D8D" d="M57.8,31.1C57.8,31.1,57.8,31.1,57.8,31.1C57.8,31.1,57.8,31.1,57.8,31.1z"/>
					<path fill="#8D8D8D" d="M59.2,31.6L59.2,31.6C59.2,31.6,59.2,31.6,59.2,31.6z"/>
					<path fill="#8D8D8D" d="M60,33.1C60,33.1,60,33.1,60,33.1C60.1,33.1,60,33.1,60,33.1L60,33.1z"/>
					<polygon fill="#8D8D8D" points="59.7,31.9 59.7,32 59.7,31.9 					"/>
					<path fill="#8D8D8D" d="M60,32.3C60,32.3,59.9,32.3,60,32.3C59.9,32.3,60,32.3,60,32.3C60,32.3,60,32.3,60,32.3z"/>
					<path fill="#8D8D8D" d="M60.2,33L60.2,33C60.2,33,60.2,33,60.2,33z"/>
					<path fill="#8D8D8D" d="M59.5,31.7C59.5,31.7,59.5,31.7,59.5,31.7L59.5,31.7z"/>
					<path fill="#8D8D8D" d="M60,34L60,34L60,34z"/>
					<polygon fill="#8D8D8D" points="60.2,33.5 60.2,33.5 60.2,33.5 					"/>
					<path fill="#8D8D8D" d="M57.3,31.1L57.3,31.1C57.3,31.1,57.3,31.1,57.3,31.1z"/>
					<path fill="#8D8D8D" d="M55.3,34.1C55.4,34,55.4,34.1,55.3,34.1C55.4,34.1,55.4,34,55.3,34.1z"/>
					<path fill="#8D8D8D" d="M60,33.1L60,33.1C60,33.1,60,33.1,60,33.1z"/>
					<polygon fill="#8D8D8D" points="55.4,34.1 55.4,34.1 55.4,34 					"/>
					<path fill="#8D8D8D" d="M56.4,31.5C56.4,31.5,56.4,31.5,56.4,31.5C56.4,31.5,56.4,31.5,56.4,31.5z"/>
					<path fill="#8D8D8D" d="M57.1,31.2L57.1,31.2C57.1,31.2,57.1,31.2,57.1,31.2z"/>
					<path fill="#8D8D8D" d="M56.1,31.7C56.1,31.8,56.1,31.7,56.1,31.7L56.1,31.7C56.1,31.8,56.1,31.7,56.1,31.7z"/>
					<polygon fill="#8D8D8D" points="55.9,32 55.9,32 55.9,32 					"/>
					<path fill="#8D8D8D" d="M59.5,34.9C59.5,34.9,59.5,34.9,59.5,34.9C59.5,34.9,59.5,34.9,59.5,34.9z"/>
					<path fill="#8D8D8D" d="M60.1,33.1C60.1,33.1,60,33.1,60.1,33.1L60.1,33.1C60.1,33.1,60.1,33.1,60.1,33.1z"/>
					<path fill="#8D8D8D" d="M56.4,32L56.4,32C56.3,32,56.3,32,56.4,32z"/>
					<path fill="#8D8D8D" d="M57.2,35.6L57.2,35.6C57.2,35.6,57.2,35.6,57.2,35.6z"/>
					<path fill="#8D8D8D" d="M56.2,32.2C56.2,32.2,56.2,32.2,56.2,32.2C56.2,32.2,56.2,32.2,56.2,32.2L56.2,32.2z"/>
					<path fill="#8D8D8D" d="M59.5,34.9L59.5,34.9L59.5,34.9z"/>
					<path fill="#8D8D8D" d="M59.7,34.6C59.6,34.6,59.7,34.6,59.7,34.6C59.7,34.7,59.7,34.7,59.7,34.6c0,0.1,0,0.2,0,0.2
						c0,0,0,0,0,0c0,0.1-0.1,0.1-0.1,0.2c0,0,0,0,0,0c0,0,0,0,0.1,0c0,0,0,0.1,0,0c0,0,0,0,0,0l0,0c-0.1,0,0,0,0-0.1
						c0,0,0,0.1-0.1,0.1c0,0,0-0.1,0-0.1l0.1,0c-0.1,0,0,0-0.1-0.1c-0.1,0,0,0.1-0.1,0.1c0,0,0,0,0,0.1c0,0.1-0.1,0-0.2,0.1
						c0,0,0,0.1,0,0.1l0-0.1c-0.1,0,0,0.1-0.1,0.1c0,0,0-0.1,0,0c-0.1,0,0,0,0,0.1l0,0c-0.1,0-0.1,0.1-0.2,0.2c0,0,0,0,0,0
						c-0.1,0.1-0.2,0.1-0.3,0.1l0,0.1c0,0,0,0,0,0c0,0,0,0,0,0c0,0,0,0,0,0c-0.1,0.1-0.2,0.1-0.3,0.1l0,0c-0.1,0-0.1,0.1-0.1,0.1
						l0,0c-0.1,0-0.3,0-0.4,0c0,0.1-0.1,0-0.1,0.1c-0.1-0.1,0-0.1-0.1-0.1c0,0-0.1,0-0.1,0l0,0l-0.1,0l0-0.1l0,0c0,0,0,0,0,0
						c-0.1,0-0.1-0.1-0.1-0.1l-0.1,0c0,0,0,0,0,0c-0.1,0,0-0.1-0.1,0c0,0,0,0,0,0c0,0-0.1-0.1-0.1-0.1l0,0c-0.1,0-0.2-0.1-0.3-0.1
						c0,0,0,0.1,0,0.1l0,0c0,0,0,0,0,0c0,0,0-0.1,0-0.1l0,0c0,0,0,0,0,0c0,0,0-0.1-0.1-0.1l0,0c-0.1-0.1-0.1-0.1-0.2-0.1
						c0,0,0,0-0.1,0c0-0.1-0.1-0.1-0.1-0.2c0,0,0,0-0.1,0c0,0,0-0.1,0-0.1c-0.1-0.1-0.1-0.1-0.2-0.2c0,0,0,0,0,0c0,0,0,0,0-0.1l0,0
						c-0.1-0.1,0-0.3-0.1-0.3l0,0l-0.1-0.1c0,0,0,0,0,0c-0.1-0.1,0-0.2-0.1-0.2c0.1-0.1-0.1-0.2,0-0.3l0,0c0,0,0,0,0,0c0,0,0,0,0,0
						c0-0.2,0-0.4,0.1-0.6c0-0.1-0.1-0.1,0-0.2l0,0c0-0.2,0.1-0.3,0.1-0.4c0,0,0,0,0,0c0,0,0.1-0.1,0-0.1c0,0,0,0,0,0
						c0,0,0-0.1,0-0.1c0,0,0,0,0,0c0,0,0.1-0.1,0-0.1c0.1,0,0-0.1,0.1-0.1c0-0.1,0.1-0.1,0-0.1c0,0.1,0.1,0,0.1-0.1c0,0,0,0,0,0
						c0,0,0-0.1,0-0.1c0.1,0,0.1-0.1,0.2-0.1c0.1-0.1,0.2-0.2,0.3-0.2c0,0.1-0.1,0.1-0.1,0.1c0.1-0.1,0.1-0.1,0.2-0.2c0,0,0,0,0,0
						c0.1-0.1,0.2-0.1,0.3-0.1c0,0,0,0,0,0c0,0,0,0,0,0l0,0c0,0,0-0.1,0-0.1c0,0.1,0.1,0,0.1,0.1c0,0,0,0,0,0c0,0,0,0,0,0
						c0.1,0,0-0.1,0.1-0.1c0,0,0,0,0,0c0,0,0.1-0.1,0.1-0.1c0,0,0,0,0,0c0.1,0,0.1-0.1,0.2-0.1c0,0.1,0,0,0,0.1l0.1,0l0,0
						c0,0,0.1,0,0.1,0l0,0l0.1,0l0,0c0,0,0-0.1,0.1-0.1c0,0,0,0,0.1,0l0,0c0,0,0.1,0,0.1,0c0,0,0,0.1,0,0.1c0,0,0.1,0,0.1,0
						c0,0,0,0,0,0l0,0c0,0,0,0,0,0c0.1,0,0-0.1,0.1,0c0,0,0,0,0,0c0.1,0,0.2,0,0.2,0.1c0,0.1-0.1,0-0.1,0c0.1,0,0.2,0,0.3,0.1l0,0
						c0-0.1,0,0.1,0.1,0.1c0,0,0,0,0,0c0.1,0,0.1,0,0.2,0.1l0,0c0,0,0.1,0.1,0.1,0.1c0,0,0,0,0,0c0,0.2,0.2,0.1,0.2,0.3c0,0,0,0,0,0
						l0.1,0.1c0,0,0,0,0-0.1c0,0,0.1,0,0.1,0c0,0,0,0,0,0.1c0,0,0,0,0,0c0,0.1,0.1,0,0.1,0l0,0c0,0,0.1,0,0.1,0c0,0,0,0-0.1,0
						c0,0,0.1,0,0.1,0.1c0,0,0,0-0.1,0c0,0.1,0,0.1,0,0.1l0,0l0,0.1l0,0c0.1,0,0.1,0.1,0.2,0.1c-0.1,0,0,0-0.1,0c0,0,0,0.1,0,0.1
						c0,0,0,0.1,0.1,0.1c0,0,0,0,0,0c0,0,0,0,0,0c0.1,0,0,0.2,0.1,0.2c0.1,0.1,0.1,0.1,0.1,0.1c0,0-0.1,0-0.1,0c0,0,0,0.1,0,0.1
						c0,0,0,0,0,0c0,0,0.1,0,0,0.1c0,0,0,0-0.1,0c0,0,0.1,0.1,0.1,0.1c0,0,0,0-0.1,0c0,0,0,0.1,0.1,0.1l0,0c0,0,0,0,0,0
						c0,0,0-0.1,0-0.1l0,0c0.1,0,0-0.1,0-0.2l0.1,0l-0.1,0c0,0,0,0,0.1,0c0,0,0,0,0-0.1c0,0,0,0,0,0l0,0c0,0,0,0,0,0
						c0-0.1-0.1-0.1,0-0.1l0,0c-0.1-0.1,0,0-0.1,0l0.1-0.1l0,0c0,0,0,0,0,0c0,0,0,0-0.1,0c0-0.1-0.1-0.1,0-0.2c0,0,0,0.1,0,0
						c0.1,0,0,0,0-0.1c0,0,0,0,0.1,0c-0.1,0,0-0.1-0.1-0.1c0,0-0.1-0.1-0.1-0.1c0,0,0-0.1-0.1-0.2l0,0c-0.1,0-0.1,0-0.1-0.1
						c0,0,0,0,0.1,0l0,0c0,0,0,0-0.1,0l0,0c0,0-0.1-0.1-0.1-0.1c0,0,0,0.1-0.1,0.1c0,0,0,0,0.1,0c0,0,0,0,0,0l0,0c0,0,0,0,0,0
						c0,0,0,0,0,0c0,0,0,0,0,0c0,0,0-0.1,0-0.1c0,0,0,0,0,0c0,0,0,0,0-0.1c0,0,0,0-0.1,0c0,0,0,0,0,0c0,0-0.1-0.1-0.1,0l0,0l0,0l0,0
						l0,0c-0.1,0-0.2-0.1-0.2-0.2l0,0c-0.1,0-0.1,0-0.2,0c0,0,0,0,0-0.1c0,0-0.1,0-0.1,0c0,0,0,0,0,0c0,0-0.1-0.1-0.1,0
						c0,0,0-0.1-0.1-0.1l0,0c0,0-0.1,0-0.1,0l0,0c-0.1-0.1-0.2,0-0.3-0.1c0,0,0.1,0,0,0.1c0,0-0.1-0.1-0.1-0.1c-0.1,0-0.1,0.1-0.1,0
						c0,0,0,0.1,0,0.1c-0.1,0-0.1-0.1,0-0.1c0,0,0,0,0,0c0,0,0,0,0,0l0,0c0,0-0.1,0-0.1-0.1c0,0,0,0,0,0c-0.1,0-0.1,0-0.2,0
						c0,0,0,0,0,0c-0.1,0,0,0-0.1,0c0,0,0-0.1-0.1,0c0,0,0,0,0-0.1c-0.1,0-0.1,0-0.2,0l0,0c0,0,0,0-0.1,0l0,0c0,0,0,0,0,0
						c0,0,0,0.1,0,0.1c0,0-0.1,0-0.1,0c0.1,0,0,0,0.1-0.1c0,0,0,0-0.1,0c0,0,0,0,0,0c-0.1,0,0,0.1-0.1,0.1c0,0,0,0,0,0
						c0,0,0,0,0,0.1c-0.1,0-0.1,0-0.1,0l0,0c0,0,0,0-0.1,0.1c0,0,0,0,0,0c0,0.1-0.1,0-0.1,0c0,0,0,0,0-0.1c0,0.1-0.1,0-0.1,0
						c0,0,0,0,0,0.1l0.1-0.1l0,0.1c0,0,0.1-0.1,0.1-0.1c0,0,0,0,0,0.1c-0.1,0-0.1,0.1-0.1,0.1l0-0.1c-0.1,0-0.1,0.1-0.2,0.1l0,0
						c0,0-0.1,0-0.1,0.1c0,0,0,0-0.1,0c0,0-0.1,0,0,0.1l-0.1,0c-0.1,0,0,0.1-0.1,0.2c0,0,0,0,0-0.1c0,0,0,0,0,0c0,0,0,0.1-0.1,0.1
						c0,0,0,0,0,0.1c0,0,0,0,0,0c0,0,0,0,0,0.1C56,31.9,56,32,55.9,32c0,0.1-0.1,0.1-0.1,0.2c0,0,0,0,0,0c-0.1,0,0,0.1,0,0.1
						c-0.1,0,0-0.1,0,0c-0.1,0,0,0.1-0.1,0.1l0,0c0,0,0,0.1-0.1,0.2c0,0,0,0,0,0c0,0.1,0,0.2,0,0.2c0,0,0,0-0.1,0c0,0,0.1,0,0.1,0.1
						c0,0-0.1,0-0.1,0l0-0.1c-0.1,0,0,0.1,0,0.1l0,0c0,0.1,0,0.1,0,0.2l0,0c0,0.1,0,0,0,0.1l-0.1,0c0,0,0,0.1,0,0.2
						c0,0-0.1-0.1-0.1-0.2c0,0,0,0.1,0,0.1c0,0,0,0,0,0c0,0,0.1,0.1,0.1,0.2c-0.1,0,0,0.2-0.1,0.2c0,0.1,0,0.2,0,0.4
						c0.1-0.1,0,0,0.1,0c0,0,0,0,0,0l0,0.1c0,0,0,0,0,0c0,0.1,0,0,0,0.1c0,0,0.1,0,0.1,0.1l0-0.1c0.1,0.1,0,0.1,0,0.2l0,0
						c0,0,0.1,0.2,0.2,0.2c0,0,0,0,0,0c0,0.1,0.2,0.2,0.2,0.3l0,0c0,0,0.1,0,0.1,0c0,0,0,0,0,0c0,0,0.1,0,0.1,0.1l0,0
						c0,0.1,0.2,0.1,0.2,0.2c0,0,0,0.1,0,0.2l0,0c0.1,0.1,0.2,0.1,0.3,0.2c0,0.1,0.2,0.2,0.3,0.3c0,0,0,0,0,0c0,0,0.1,0,0.1,0l0,0
						c0,0.1,0.1,0.1,0.1,0.1l0-0.1c0.1,0.2,0.3,0.1,0.4,0.2c0,0,0.1,0,0.1,0l0,0c0.1,0,0.1,0,0.2,0l0,0c0.1,0,0.1-0.1,0.1-0.1l0,0.1
						c0.1,0,0.2,0.1,0.3,0c0,0,0,0,0,0c0,0,0.2,0,0.2-0.1c0,0.1,0.1,0,0.2,0l0,0c0-0.1,0-0.1,0.1-0.1c0,0,0,0,0,0c0.1,0,0,0,0.1,0
						l0,0c0.1,0,0,0,0.1-0.1c0,0,0.1,0,0.1,0c0,0,0-0.1,0-0.1c0,0,0,0,0,0c0.1,0,0.1-0.1,0.2-0.1c0,0,0,0,0,0c-0.1,0-0.1,0-0.1,0
						c0,0,0.1,0,0,0.1c0,0,0.1-0.1,0.1-0.1c0,0,0,0,0,0l0,0c0,0,0,0,0,0c0,0,0,0,0,0c0,0,0.1,0,0.1,0c0,0,0,0,0-0.1c0,0,0,0,0,0l0,0
						l0,0c0,0,0,0-0.1,0c0,0,0-0.1,0.1-0.1c0,0,0-0.1,0-0.1c0.1,0,0.1,0,0.2,0c0.1-0.1,0.2-0.1,0.1-0.2c0,0,0,0,0.1,0c0,0,0,0,0,0
						c0,0,0.1-0.1,0.1-0.2c0.1,0,0,0.1,0.1,0l0,0c0.2-0.1,0.1-0.3,0.3-0.4c0,0,0,0,0,0c0.2-0.1,0.2-0.4,0.3-0.5c0,0,0-0.1,0-0.1l0,0
						l0-0.1c0-0.1,0.2-0.1,0.1-0.2l0,0c0,0,0-0.1,0-0.1c0,0,0,0,0,0l0,0l0-0.1c0-0.1,0.1,0,0.1-0.1c0,0-0.1-0.1-0.1-0.1c0,0,0,0,0,0
						l0,0c-0.1,0-0.1,0-0.2,0l0,0.1l0,0l0,0c0,0,0,0,0,0.1c0,0,0,0,0,0l0.1,0.1c0,0-0.1,0-0.1,0c0,0,0.1,0,0.1,0c0,0-0.1,0,0,0
						c0,0,0,0,0,0c0,0,0,0.1,0,0.1c0,0,0,0.1-0.1,0.1c0,0,0,0.1,0,0.1c-0.1-0.1,0,0.1-0.1,0.1c0.1,0.1,0,0.1,0,0.2c0,0,0,0,0,0
						c0,0,0,0-0.1,0c0.1,0,0,0.1,0.1,0.1c-0.1,0-0.1-0.1-0.1-0.1c0,0,0,0.1,0.1,0.1C59.8,34.5,59.8,34.5,59.7,34.6
						c0.1,0,0.1,0,0.1,0C59.7,34.6,59.7,34.6,59.7,34.6C59.7,34.6,59.7,34.6,59.7,34.6z M58.9,35.5L58.9,35.5
						C58.9,35.5,58.9,35.5,58.9,35.5C58.9,35.5,58.9,35.5,58.9,35.5z M58.8,35.5L58.8,35.5C58.8,35.5,58.8,35.5,58.8,35.5
						C58.8,35.5,58.8,35.5,58.8,35.5z M59.1,35.7C59.1,35.7,59.1,35.7,59.1,35.7C59.1,35.7,59.1,35.7,59.1,35.7L59.1,35.7
						C59.1,35.7,59.1,35.7,59.1,35.7z"/>
					
						<ellipse transform="matrix(0.7071 -0.7071 0.7071 0.7071 -7.8758 52.2336)" fill="#8D8D8D" cx="59.1" cy="35.6" rx="0" ry="0"/>
					<polygon fill="#8D8D8D" points="59.2,31.6 59.2,31.6 59.2,31.6 					"/>
					<polygon fill="#8D8D8D" points="57.4,35.6 57.3,35.6 57.4,35.6 					"/>
					<path fill="#8D8D8D" d="M59.6,32.1C59.6,32.1,59.6,32.1,59.6,32.1C59.6,32.1,59.6,32.1,59.6,32.1z"/>
					<path fill="#8D8D8D" d="M59.7,32.3L59.7,32.3C59.8,32.3,59.7,32.3,59.7,32.3z"/>
					<polygon fill="#8D8D8D" points="59.8,32.5 59.8,32.5 59.8,32.5 					"/>
					<path fill="#8D8D8D" d="M57.2,31.5L57.2,31.5C57.2,31.5,57.2,31.5,57.2,31.5z"/>
					<path fill="#8D8D8D" d="M58.1,31.3C58.1,31.3,58.1,31.3,58.1,31.3C58.1,31.3,58.1,31.3,58.1,31.3z"/>
					<polygon fill="#8D8D8D" points="56.4,32 56.4,32 56.4,32 					"/>
					<path fill="#8D8D8D" d="M58,31.3C58,31.3,58.1,31.3,58,31.3C58.1,31.3,58,31.3,58,31.3z"/>
					<polygon fill="#8D8D8D" points="60.1,33.3 60.1,33.3 60.1,33.3 					"/>
					<path fill="#8D8D8D" d="M60.1,33.3L60.1,33.3C60.1,33.3,60.1,33.3,60.1,33.3z"/>
					<path fill="#8D8D8D" d="M60.1,33.3L60.1,33.3C60.1,33.3,60.1,33.3,60.1,33.3z"/>
					<path fill="#8D8D8D" d="M60,33L60,33C60,33,60,33,60,33z"/>
					<path fill="#8D8D8D" d="M60,33C60,33,60,33,60,33L60,33C60,33,60,33,60,33z"/>
					<path fill="#8D8D8D" d="M60.1,32.6L60.1,32.6C60.1,32.6,60.1,32.6,60.1,32.6C60.2,32.5,60.1,32.7,60.1,32.6z"/>
					<path fill="#8D8D8D" d="M60,32.4C60,32.4,60,32.4,60,32.4C60,32.4,60,32.3,60,32.4z"/>
					<path fill="#8D8D8D" d="M58.8,31.3L58.8,31.3C58.8,31.3,58.8,31.3,58.8,31.3z"/>
					<polygon fill="#8D8D8D" points="58.5,31.4 58.5,31.5 58.5,31.4 					"/>
					<polygon fill="#8D8D8D" points="58.4,31.1 58.4,31.1 58.3,31.1 					"/>
					<path fill="#8D8D8D" d="M55.9,32L55.9,32C55.9,32,55.9,31.9,55.9,32z"/>
					<path fill="#8D8D8D" d="M55.4,33C55.4,33,55.4,33.1,55.4,33C55.4,33.1,55.4,33,55.4,33z"/>
					<polygon fill="#8D8D8D" points="57,35.9 56.9,35.9 57,35.9 					"/>
				</g>
			</g>
		</g>
	</g>
</g>
<g opacity="0.88">
	<path fill="#7C7C7C" d="M40.6,20.3c-0.2,0-0.3-0.1-0.3-0.2v-2.9c0-0.2,0.1-0.4,0.2-0.4h9.5c0.1,0,0.3,0,0.3,0.2v3
		c0,0.2-0.1,0.3-0.2,0.3H47l-5.4,5.6v1.4h3.7c0.1,0,0.2,0,0.2,0.1v3.2c0,0.1,0,0.2-0.1,0.2H30.4c-0.1,0-0.2-0.1-0.2-0.2v-3.2
		c0-0.1,0.1-0.2,0.2-0.2h3.7V26l-5.4-5.7h-3.3c-0.2,0-0.3-0.1-0.3-0.2v-2.9c0-0.2,0.1-0.4,0.3-0.4h14c0.2,0,0.3,0,0.3,0.2v3.1
		c0,0.2-0.1,0.2-0.2,0.2h-2.1l2.5,3l2.8-3v0H40.6z"/>
</g>
<g>
	<g>
		<g>
			<g>
				<path fill="#8D8D8D" d="M30.4,37.9c0,0,0,0,0.1,0.1l0.1,0L30.4,37.9z"/>
				<path fill="#8D8D8D" d="M31.2,38.3c0.1,0.1,0.3,0.1,0.2,0.1c-0.2-0.1-0.1-0.1-0.3-0.1c-0.1-0.1-0.2-0.1-0.2-0.1
					c-0.1,0-0.1,0-0.3-0.1C30.9,38.1,31,38.2,31.2,38.3C31.3,38.3,31.3,38.3,31.2,38.3z"/>
				<path fill="#8D8D8D" d="M44.2,38.7L44.2,38.7C44.1,38.7,44.1,38.7,44.2,38.7z"/>
				<path fill="#8D8D8D" d="M50.6,33.4c0,0.1,0,0.1,0,0.1C50.6,33.5,50.6,33.4,50.6,33.4z"/>
				<path fill="#8D8D8D" d="M51.5,32.3C51.5,32.4,51.5,32.4,51.5,32.3C51.5,32.4,51.5,32.4,51.5,32.3z"/>
				<path fill="#8D8D8D" d="M44.2,38.7l0.2-0.1C44.4,38.6,44.3,38.6,44.2,38.7z"/>
				<path fill="#8D8D8D" d="M32.9,38.9c0,0-0.1,0-0.1,0L32.9,38.9L32.9,38.9z"/>
				<polygon fill="#8D8D8D" points="40.7,39.8 40.6,39.8 40.6,39.8 				"/>
				<path fill="#8D8D8D" d="M37.9,40c0.1,0,0.1-0.1,0.1-0.1C37.9,39.9,37.9,40,37.9,40C37.8,40,37.8,40,37.9,40z"/>
				<path fill="#8D8D8D" d="M33.5,39.2L33.5,39.2C33.5,39.2,33.5,39.2,33.5,39.2z"/>
				<path fill="#8D8D8D" d="M42.6,39.3C42.7,39.3,42.7,39.4,42.6,39.3C42.7,39.3,42.7,39.3,42.6,39.3z"/>
				<path fill="#8D8D8D" d="M29.9,33.7C29.9,33.7,29.9,33.7,29.9,33.7C29.9,33.7,29.9,33.7,29.9,33.7z"/>
				<path fill="#8D8D8D" d="M30.3,38L30.3,38c-0.1,0.1-0.2,0.2-0.3,0.3L30.3,38z"/>
				<path fill="#8D8D8D" d="M52.9,30L52.9,30C52.9,30.1,52.9,30,52.9,30z"/>
				<path fill="#8D8D8D" d="M42.9,9.3c0.2,0.4-0.6,0.3-0.3,0.7C42.6,9.9,43.2,9.6,42.9,9.3z"/>
				<path fill="#8D8D8D" d="M33,39l0.1,0C33.1,39,33,39,33,39z"/>
				<path fill="#8D8D8D" d="M42.6,10L42.6,10L42.6,10C42.7,10.1,42.6,10.1,42.6,10z"/>
				<path fill="#8D8D8D" d="M53.8,23.8C53.7,23.8,53.7,23.8,53.8,23.8C53.7,23.8,53.7,23.8,53.8,23.8z"/>
				<path fill="#8D8D8D" d="M53,28.4l0-0.1C53,28.3,53,28.3,53,28.4z"/>
				<path fill="#8D8D8D" d="M53.1,21.4c0-0.1,0-0.1,0-0.2c0,0,0,0,0,0C53.1,21.3,53.1,21.3,53.1,21.4z"/>
				<path fill="#8D8D8D" d="M52.4,19C52.4,19,52.4,19.1,52.4,19l0,0.1L52.4,19z"/>
				<path fill="#8D8D8D" d="M26.3,29.1c-0.1,0.1-0.3,0.2-0.5,0.3C26.2,29.2,26.4,29.4,26.3,29.1z"/>
				<path fill="#8D8D8D" d="M32.9,39C33,39,33,39,32.9,39L32.9,39C32.9,38.9,32.9,38.9,32.9,39z"/>
				<path fill="#8D8D8D" d="M51.1,21.8l0-0.3C51.1,21.5,51.1,21.7,51.1,21.8z"/>
				<path fill="#8D8D8D" d="M28.9,15.6L28.9,15.6C28.9,15.7,28.9,15.7,28.9,15.6z"/>
				<path fill="#8D8D8D" d="M50.7,20.5c0.1-0.1,0.1-0.2,0.1-0.2c0,0,0,0-0.1,0L50.7,20.5z"/>
				<path fill="#8D8D8D" d="M25.8,29.4L25.8,29.4L25.8,29.4z"/>
				<path fill="#8D8D8D" d="M28.1,30.6c-0.1-0.2-0.8,0.3-1.2,0.5c-0.4-0.2,0.4-0.4,0.8-0.7c-0.3-0.1-1.1,0.1-1.1-0.1
					c0.1-0.1,0.1-0.1,0.3-0.2c-0.7,0-0.3-0.6-1.2-0.6c0.1,0,0.1-0.1,0.2-0.1c-0.4,0.2-0.7,0.3-1,0.4c-0.1-0.1-0.6-0.1-0.1-0.3
					c0,0.1,0.2,0,0.4,0l-0.3-0.1c0.7-0.4,0.3,0.1,0.8-0.1c-0.3-0.2-1-0.3-0.9-0.6c0.7-0.2,0.4,0.4,0.9,0l-0.2,0.4
					c1-0.6,0,0.2,1.1-0.4c0.1-0.4-0.5-0.3-0.4-0.8c-0.4,0-0.6,0.2-1,0.2c-0.9-0.5,1.6-0.9,0.6-1.1c-0.5,0-1.4,0.1-1-0.4l0.8,0
					c0-0.4-1.2-0.1-0.7-0.6c0.3,0.1,0.3,0.3,0.4,0.2c0.6-0.3-0.5-0.2-0.5-0.4l0.7-0.1c-0.1-0.4-0.7-0.9-0.8-1.5c0.2,0,0.4,0.1,0.6,0
					c-0.2-0.3-0.1-0.7,0-1c0.2-0.3,0.4-0.6,0.6-0.9l-0.5-0.3c0-0.1,0.3,0,0.4,0c0.3-0.2-0.4-0.1-0.5-0.3c0-0.1,0.4-0.1,0.5,0
					c-0.4-0.5-0.7-1.5,0-1.7l0.1,0.1c0.3-0.2-0.9-0.8-0.3-0.9l0.1,0.1c0.5-0.6,0.5-1.6,1.5-1.7c-0.6-0.5,0.7-0.5-0.1-1.1
					c0.7,0,0.8,0.2,1.4-0.1c0.1-0.1-0.3-0.6-0.3-0.8l0.4,0.4l-0.2-0.6l0.6,0.3l0-0.2c-0.1,0-0.3-0.1-0.4-0.2c0-0.4,0.8-0.3,0.9-0.1
					l0.2-0.8c0.1,0.2,0.1,0.3,0.1,0.5c-0.1-0.7,0.4,0.4,0.3-0.2c-0.1-0.1-0.2-0.3-0.2-0.3c0.3,0.1,0.6-0.1,0.8-0.4l0.2,0.3
					c0.4-0.2,0.8-0.7,1.3-1c-0.2,0-0.5-0.6-0.4-0.7l0.3,0.4c0-0.3-0.2-0.1-0.2-0.6c0.2,0,0.4,0.5,0.4,0.7l0.2-0.3
					c0.1,0.1,0.1,0.2,0.1,0.4c0-0.3,0.6,0.3,0.5-0.3l0.1,0.1c0.5-0.3,0.7-0.5,1.1-0.7c-0.1-0.4,0.1-0.4,0.1-0.8
					c0.4,0,0.8,0.3,1.3,0.1c0.3-0.3,0-0.4,0.1-0.6c0.1,0.4,0.5,0.3,0.3,0.6c0.5-0.1,0.6-0.2,1.3-0.5c-0.1-0.1-0.2-0.2-0.1-0.3
					c0.1-0.1,0.3,0.1,0.3,0.3l0,0c0.4-0.3,0.8-0.1,1.2,0.2c0.4,0.3,0.7,0.4,1.1,0.1l0,0l0.7-0.3c0.3,0.1-0.2,0.2,0,0.5
					c0.4-0.2,0.6-0.2,0.9-0.1c0.2,0.1,0.4,0.2,0.8,0.1c0.1,0.5,0.4,0.6,0.8,0.7c0.4,0.1,0.8,0.1,0.9,0.5l0.1-0.2
					c0.2-0.1,0.1,0.2,0.2,0.3c0.1-0.2-0.1-0.2,0.1-0.3c1.3,0.3,2.1,1.5,2.9,2.5c0.3,0.3,0.9-0.6,1,0.2l-0.4,0.1
					c0.5,0.2,0.8,0.6,1.1,0.9c0.3,0.4,0.6,0.8,1,1.1c-0.1,0-0.2,0-0.2,0c-0.1,0.3,0.4,0.6,0.5,0.5c0.1,0.1-0.1,0.1-0.2,0.2
					c0,0.2,0.5,0.3,0.4,0.5c0,0-0.1,0-0.1,0c0.2,0.1,0.2,0.6,0.4,0.3c0,0.4,0.4,0.6,0.4,0.9c0.3,0.1,0.1,0.6,0.5,0.5
					c-0.4,0.1-0.1,0.7,0.1,0.9c-0.1,0-0.1,0.2-0.3,0.2c0.1,0.2,0.2,0.5,0.4,0.4c-0.3,0.5,0.6,0.9,0,1.2c0.2,0.4,0.3,0.7,0.4,1.1
					c0.1,0.4,0.2,0.7,0.2,1.1c-0.3,0,0-0.8-0.4-0.7c0.2,0.6,0.4,1.1,0.3,1.7c-0.1,0.2-0.1-0.1-0.2-0.2c0.1,0.7-0.2,1.3-0.1,1.9
					c0,0,0-0.1-0.1-0.1c0,0.1-0.1,0.3,0,0.3l0-0.1c0.3-0.1,0.3,0.6,0.4,0.6c-0.3-0.3-0.3,0.6-0.7,0.1c0,0.1,0,0.2,0.1,0.2
					c-0.1,0.1-0.1,0.1-0.2,0c0,0.4,0.1,0.3,0,0.7c-0.1,0-0.1-0.1-0.1-0.2c0.1,0.2,0.1,0.5-0.1,0.7c0,0-0.1,0-0.1-0.1
					c-0.1,0.5-0.1,1-0.5,1.5c-0.2-0.3-0.2,0.1-0.4,0.1c0,0-0.1,0.3-0.1,0.3l0.2-0.1c-0.2,0.2-0.2,0.6-0.4,0.7l0-0.2l-0.3,0.5L50,33
					c-0.1,0.3,0.2,0.1,0,0.4c0-0.1-0.2,0.3-0.4,0.3l0,0c0,0.2-0.1,0.3-0.3,0.5c-0.1,0-0.2-0.2-0.2-0.2c0,0.2-0.4,0.6-0.4,0.8
					c0-0.1-0.1-0.1-0.1-0.1l0,0.2c-0.1,0.1-0.2,0.1-0.2,0c-0.3,0.3,0.3,0.1-0.1,0.4c0,0,0,0,0-0.1c-0.4,0.3-0.6,0.8-1,1
					c-0.2,0,0.3-0.3,0.1-0.3c-0.5,0.5-0.9,1-1.4,1.4l0.1-0.1c0.1,0.2-0.4,0.2-0.7,0.4c0.1-0.1,0-0.2,0-0.1c-0.4,0.2-0.7,0.5-1.3,0.9
					l0.1-0.1c-0.3,0.1-0.6,0.2-0.9,0.3c-0.1,0.1-0.2,0.1-0.1,0.2c-0.9,0.1-1.5,0.7-2.3,0.6c0.1,0,0.2-0.1,0.1-0.1l-0.6,0.2
					c0.1,0.1,0.1,0,0.2,0c-0.1,0.1-0.2,0.1-0.4,0.2c0.3-0.1,0-0.1-0.1-0.1c0,0,0,0,0,0.1c-0.4-0.1,0,0.1-0.5,0.1l0,0
					c-0.2,0-0.3,0.1-0.5,0.1c-0.1-0.1,0.2-0.1,0.2-0.1c-0.3,0-0.5,0.2-0.7,0.1c0.1,0,0.3,0,0.4-0.1c-0.3,0-0.3,0-0.5,0l0,0l-0.4,0
					l0.1,0c-0.3,0.1-0.7,0.1-1.1,0.1c0.4-0.1,0.1,0,0.1-0.1c-0.1,0-0.3,0-0.2-0.1c-0.2,0-0.3-0.1-0.6,0c0,0-0.2,0-0.2-0.1
					c-0.3,0,0.1,0,0,0c-0.4,0-1-0.2-1.6-0.2c-0.5-0.1-0.6-0.1-1.1-0.2c-0.2-0.1,0.1,0,0.1,0c-0.2-0.1-0.4-0.1-0.7-0.2c0,0,0,0-0.1,0
					c-0.2-0.1-0.1,0-0.4-0.1c0.1,0,0.1,0,0.2,0c-0.2-0.1-0.5-0.2-0.7-0.2c-0.1,0,0.1,0,0.2,0.1c-0.3-0.1-0.7-0.2-0.7-0.3l0.2,0.1
					c-0.1,0,0,0,0,0c0.2,0.1,0.3,0.1,0.3,0.1L32,38.6c0.2,0.1,0.6,0.2,1,0.4l-0.1,0l0.3,0.1c0.1,0,0.1,0.1-0.1,0
					c0.2,0.1,0.2,0.1,0.4,0.1c0,0,0,0,0,0l0.2,0.1c0,0,0,0-0.1,0c0.4,0.1,0.7,0.2,0.8,0.2l0,0c0.6,0.1,0.1,0,0.5,0l0.3,0.2l0.1,0
					c0.1,0,0.2,0,0.2,0.1c0.2,0,0,0,0.1,0c0.3,0.1,0.8,0.1,0.9,0.2c0.1,0-0.3-0.1,0-0.1c0.1,0.1,0.4,0,0.6,0.1c-0.1,0-0.3,0-0.1,0.1
					c0.2-0.1,0.5,0.1,0.8,0c0-0.1,0.5,0,0.9-0.1c0,0,0.7,0,1.1,0l0,0c0.1-0.1,0.4-0.1,0.7-0.2c0,0.1,0,0.1-0.2,0.1c0,0,0.3,0,0.3,0
					c0.1,0,0.1-0.1,0.3-0.1l0,0.1c0.3-0.1,0.7-0.2,1.1-0.3c0-0.1-0.4-0.1,0-0.3c0,0,0.1,0.1,0,0.2c0,0,0.1-0.1,0.2-0.1L42,39.4
					c0.2,0,0.1-0.1,0.2-0.1c0,0.1,0.1,0,0.1,0.1c0,0-0.1,0-0.2,0.1c0.2,0,0.4-0.1,0.5,0c0,0,0-0.1,0.1-0.1c0.3-0.1,0.1,0,0.3,0
					c0.1-0.1,0.3-0.1,0.3-0.2c0.1,0,0.1,0,0.2,0c0.1-0.1,0.8-0.3,0.5-0.4l0,0l0,0l0,0l0,0c0.5-0.3,1.1-0.5,1.6-0.8l0,0
					c0.3-0.2,0.6-0.4,0.8-0.7c0.1-0.1,0.2-0.1,0.2,0c0.2-0.2,0.2-0.2,0.5-0.4c-0.2,0.2,0.1,0-0.2,0.2c0.3-0.2,0.4-0.2,0.6-0.5
					c0,0.2,0.3,0,0.4-0.2l-0.2,0.1c0.1-0.1,0.3-0.2,0.4-0.3l0,0.2C49,36,49,35.2,49.6,35c0-0.2-0.3,0.2-0.3,0
					c0.2-0.2,0.6-0.3,0.7-0.4c0.4-0.3,0.1-0.5,0.4-0.8c-0.1,0-0.3,0-0.1-0.4c0.2-0.3,0.5-0.2,0.4,0c0,0.1-0.1,0.1-0.1,0.1
					c0,0.1-0.1,0.2,0,0.2l0-0.1c0.1-0.1,0.4-0.5,0.4-0.3c0.1-0.2,0-0.2-0.2,0c0.3-0.3,0.4-0.5,0.7-0.9c-0.1,0-0.2,0.1-0.1,0
					c0.4-0.5,0-0.3,0.2-0.7c0.2-0.2,0.2,0.2,0.3-0.2c0.2-0.2,0.2,0,0.2,0.2c0.1-0.4,0.4-0.6,0.5-0.9l0,0.2c0-0.1,0.1-0.2,0.1-0.3
					l-0.2,0.1c0.1-0.1,0.1-0.2,0.2-0.2c0-0.2-0.3,0-0.3-0.3c0.1-0.1,0.1-0.5,0.3-0.5c-0.3,0.5,0.2,0,0.1,0.4c0-0.1,0.1-0.2,0.1-0.3
					c0,0,0,0,0,0.1c0.3-0.4-0.2-0.3,0-0.8c0.1,0.1,0.3-0.1,0.3-0.1c-0.1,0.2-0.2,0-0.3-0.2c0.2-0.3,0-0.4,0.1-0.5l-0.1,0.2
					c-0.1-0.1,0-0.2,0-0.5c0.1,0,0,0.2,0.1,0.1c-0.2-0.3,0.3-0.5,0.3-0.9c0.1-0.1,0.3,0,0.3-0.1c-0.1-0.4,0.3-0.4,0.2-0.9
					c-0.2,0.1-0.2,0.1-0.3-0.2l0.1,0.7l-0.2-0.5c0,0.2,0.1,0.5,0,0.6c-0.1-0.2-0.1-0.2-0.2-0.1c0.3-0.3-0.1-0.6,0.1-0.9l0.5,0
					c0.3-0.5-0.2-0.9-0.1-1.5l-0.1,0.2c-0.2-0.1,0-0.4-0.1-0.6c0.2,0,0.2-0.1,0.3-0.2c-0.1,0,0-0.5-0.4-0.5l0.2-0.3
					c0-0.5-0.5-0.5-0.6-1c0.2,0.1,0.3-0.1,0.5,0.2c0-0.2,0-0.3-0.1-0.3c0.1-0.1-0.3-0.4-0.2-0.6c-0.1-0.1-0.3,0-0.3-0.2
					c0,0,0.1,0,0.1,0c-0.1,0-0.2-0.2-0.3,0c0.4-0.6-0.4-1.3-0.2-1.9c-0.2-0.3-0.4-0.7-0.6-1c0.1,0,0.1,0,0.1,0c0-0.5-0.6,0-0.7-0.5
					c0.2-0.4,0.3,0.2,0.3,0c0.5-0.4-0.4-0.5-0.2-1l0.1,0.1c0-0.4-0.6-0.4-0.8-0.8c0,0,0.1,0,0.1-0.1c-0.4-0.1-0.9-0.4-1.2-0.7
					c0.3-0.1,0.2,0.1,0.4-0.2c-0.1-0.1-0.3,0.3-0.6,0.1c0-0.2,0-0.5,0.2-0.7c0,0,0.2,0.3,0.2,0.3c0.2-0.4-0.3-0.3-0.4-0.5l0.1-0.1
					c-0.4-0.4-0.7,0-1.1-0.5l0,0.1c-0.5,0.1,0-0.4-0.5-0.3l0.2-0.4c-0.2-0.1-0.8-0.1-1.2-0.3c0.4-0.2,0.8,0,1.2,0
					c-0.2-0.1-0.6-0.4-0.8-0.3c0.1,0,0.2,0,0.3,0.1c-0.4,0.1-0.8,0.1-1.1-0.1c0.6-0.7-0.8-0.8-0.7-1.6c-0.4,0-0.7-0.2-1.1-0.5
					c-0.3-0.2-0.7-0.5-1.1-0.6c0,0.8-0.3-0.1-0.5,0.7c-0.2,0-0.3,0-0.3-0.1l-0.5-0.6c-0.1-0.3,0.2-0.1,0.3-0.3
					c-0.4-0.2-0.1-0.4-0.3-0.7c0,0.3-0.3,0.4-0.5,0.2l0.3,0.5c-0.7,0.2-0.4-0.8-1.1-0.5L41,8.3c-0.4,0.1-1.3-0.3-1.6,0.4
					c0-0.1-0.1-0.3,0-0.4c-0.4-0.1-0.9,0-1.3,0.2c-0.4,0.1-0.8,0.2-1.1,0l0-0.2c-0.1,0.1-0.2,0.4-0.4,0.2c0-0.1,0-0.2,0-0.2
					c-0.1,0.1-0.4,0.4-0.6,0.3l0.1-0.3c-0.4-0.1-0.7,0.1-1,0.3c-0.2,0.3-0.5,0.6-0.7,0.7c-0.1-0.6-0.8-0.8-1.1-0.8l0-0.1
					c-0.9,0.2-1.4,1-2,1.6c-0.8-0.5-1.8,0.5-2.7,0.5c0.2,0,0.3,0.5,0.2,0.6c-0.3,0-0.2,0.7-0.5,0.1l0.1,0c-0.5-0.5-0.8-0.1-1,0.1
					l0.5,0.7c-0.7-0.2-1.1,0.2-1.4,0.6c-0.3,0.5-0.5,0.9-1.1,0.6c0,0.3-0.1,0.5-0.1,0.8l-0.4-0.3c-0.5,0.4-0.7,0.5-1.1,1.2l-0.2-0.3
					c-0.3,0.3,0.9,1.3,0.8,1.6l-0.7-0.3c-0.4,0.5-1.3,0.9-1,1.8c-0.1-0.1-0.3-0.2-0.3-0.3c-0.2,0.3-1,1,0,1.3
					c-0.7-0.3-0.4,0.6-0.2,1.1l-0.5-0.2c0.6,0.5,0.7,0.6,0.8,1c-0.1,0.1-0.4,0-0.3-0.1c-0.4,0.2,0.4,0.4,0,0.7l-0.3-0.2
					c-0.1,0.3,0,0.3,0.4,0.6c0.2,0.3-0.3,0.6-0.8,0.6c0.3,0.1,0.7,0.3,0.5,0.5c-0.2,0-0.3-0.1-0.3-0.1c-0.5,0.5,0.5,0.9-0.1,1.3
					c-0.2,0-0.3,0-0.3,0c0.1-0.5,0.1-0.8,0.2-0.8C21,23,20.8,23.3,20.2,23c0.3,0.4,1.1,1,0.9,1.3c-0.1,0-0.1,0-0.2,0l-0.1,0
					c-0.1,0.1,0,0.2,0.1,0.2c-0.1,0.1-0.2,0.2-0.2,0.3c-0.4,0-0.2,0.5-0.3,0.7c0.6,0,0.5,0.2,1,0c0,0-0.1,0-0.1-0.2
					c0,0,0-0.1-0.1-0.1l0.1,0c0-0.1,0-0.3,0-0.5c0.3,0.2,0.5,0.3,0.2,0.5c0.4,0.1,0.7,0.2,0.9,0.2c-0.8,0.3-1.2,0.8-1.7,0.9
					c0.4,0.6,0.3,1.4,1.5,1.5c0.2,0.1-0.3,0.2-0.4,0.3c-0.1-0.1-0.1-0.2-0.3-0.2c0.3,0.3,0.3,0.9,1.1,0.8c-0.3,0.5-0.8,0-0.5,0.5
					l-0.3,0c-0.5,0.7,0.2,1,0.7,1.3c0.6,0.3,1.2,0.5,0.6,1.4c0.1-0.1,0.1-0.2,0.2-0.3c0,0.8,0.4,1.3,0.9,1.9c0.5,0.5,0.9,1,0.9,2
					c0.1,0.5,0.5,0.1,1,0l-0.5,0.5c0,0,0.2-0.1,0.4-0.1c0.2-0.1,0.4-0.1,0.4-0.1c0.4,0,0.3,0.5,0.2,0.9c-0.1,0.5,0,0.9,0.6,0.7
					l0.2-0.4c0.1,0.2,0.8,0.3,0.4,0.7c0.1-0.1,0.4-0.3,0.3-0.1L28.1,38c0,0,0.2,0,0.4-0.1c0.2,0,0.4-0.1,0.4-0.1
					c0.3,0.5-0.9,1.2-0.3,1.7c0.3,0,1.2-0.5,1.3-0.8c-0.1-0.1-0.1-0.4,0.1-0.7l0.3,0c0.6-1,1.3-1.9,1.3-2.8L31,35.6l0.2-0.5l0.2,0.1
					c0.1-0.5-0.2-0.2-0.4,0c0.1-0.3,0.2-0.4,0.2-0.6c0,0-0.2,0.2-0.4,0.4c-0.2,0.2-0.4,0.4-0.4,0.4c0.2-0.4,0.6-0.6,0.6-0.9
					c-0.4,0.3-0.5,0.9-0.9,1c0.2-0.5,0.5-0.8,0.1-0.6c0.2-0.2,0.3-0.4,0.4-0.4c-0.3,0.2-0.4-0.1-0.9,0.3c0.3-0.6-0.5-0.2,0.2-1
					c-0.2,0.2-0.8,0.4-0.9,0.3c1.1-0.7-0.4-0.4,0.6-1.3c-1,0.6-0.8-0.2-1.5,0c0.1,0,0.2-0.1,0.2-0.1c-0.1-0.2,0.2-0.4,0.2-0.7
					c-0.7,0.5-1.1,0.4-1.6,0.6c0.6-0.7,0.9-0.5,1.6-1c-0.6,0.4-0.8,0.1-1.3,0.5c0.3-0.4,0.1-0.3,0.7-0.7c-1,0.6-0.3,0-0.9,0.2
					c0.3-0.5,0.9-0.6,0.4-0.7C27.6,30.6,28.1,30.6,28.1,30.6z M24.5,24.3C24.5,24.3,24.5,24.3,24.5,24.3c0,0.1,0,0.1,0,0.2
					C24.5,24.4,24.5,24.4,24.5,24.3z M24.5,23.7c0,0.1,0,0.2,0,0.3c-0.2,0-0.4,0-0.4-0.1C24.2,23.9,24.4,23.8,24.5,23.7z M20.5,25.1
					c-0.1-0.1,0-0.2,0.1-0.2c0,0.1,0,0.1,0.1,0.2c0,0,0,0,0.1,0C20.7,25.1,20.6,25.1,20.5,25.1z"/>
				<path fill="#8D8D8D" d="M21.3,25.3C21.3,25.3,21.3,25.3,21.3,25.3c0.1,0,0.1,0,0.2,0C21.4,25.2,21.3,25.2,21.3,25.3L21.3,25.3z"
					/>
				<path fill="#8D8D8D" d="M44.1,38.7L44.1,38.7C44.1,38.7,44,38.7,44.1,38.7C44,38.7,44,38.7,44.1,38.7z"/>
				<polygon fill="#8D8D8D" points="28.6,16.3 28.5,16.2 28.6,16.3 				"/>
				<path fill="#8D8D8D" d="M40.2,39.5C40.2,39.5,40.2,39.5,40.2,39.5C40.2,39.5,40.2,39.5,40.2,39.5z"/>
				<path fill="#8D8D8D" d="M38.6,39.7l-0.2,0C38.5,39.7,38.5,39.7,38.6,39.7z"/>
				<path fill="#8D8D8D" d="M37.3,39.7C37.3,39.7,37.3,39.7,37.3,39.7L37.3,39.7L37.3,39.7z"/>
				<path fill="#8D8D8D" d="M51.7,28.1C51.7,28.1,51.7,28.1,51.7,28.1C51.6,28,51.6,28,51.7,28.1z"/>
				<path fill="#8D8D8D" d="M49.7,33.7c0-0.1,0-0.1,0.1-0.2C49.6,33.6,49.6,33.6,49.7,33.7z"/>
				<polygon fill="#8D8D8D" points="51.1,21.8 51.1,21.8 51.1,21.8 				"/>
				<path fill="#8D8D8D" d="M49.9,33.3c-0.1,0.1-0.1,0.2-0.2,0.2C49.8,33.4,49.8,33.4,49.9,33.3z"/>
				<polygon fill="#8D8D8D" points="31.9,38.5 31.8,38.5 31.8,38.5 				"/>
				<path fill="#8D8D8D" d="M31.8,38.5L31.8,38.5C31.8,38.5,31.8,38.5,31.8,38.5z"/>
				<path fill="#8D8D8D" d="M31.6,38.4l0.1,0.1C31.7,38.5,31.7,38.5,31.6,38.4z"/>
				<path fill="#8D8D8D" d="M33.5,39.1L33.5,39.1C33.5,39.1,33.5,39.1,33.5,39.1z"/>
				<path fill="#8D8D8D" d="M34,39.2c-0.1,0-0.3-0.1-0.5-0.1l0,0C33.6,39.1,33.9,39.2,34,39.2z"/>
				<path fill="#8D8D8D" d="M36.1,39.8l-0.4-0.1c0.1,0,0.2,0.1,0,0C36.2,39.9,35.5,39.7,36.1,39.8z"/>
				<path fill="#8D8D8D" d="M37.4,40C37.2,40,37.4,40,37.4,40C37.6,40,37.6,40,37.4,40z"/>
				<path fill="#8D8D8D" d="M46.8,37.2l0,0.1C47,37.2,46.8,37.3,46.8,37.2z"/>
				<path fill="#8D8D8D" d="M47.9,35.6l-0.2,0.1l0,0.1C47.7,35.8,47.9,35.6,47.9,35.6z"/>
				<polygon fill="#8D8D8D" points="49.3,35.4 49.3,35.5 49.4,35.3 				"/>
				<path fill="#8D8D8D" d="M52.8,19.3l-0.3,0.2C52.6,19.6,52.9,19.5,52.8,19.3z"/>
				<path fill="#8D8D8D" d="M48.4,13.3c0.1-0.2,0-0.4-0.2-0.4C48.3,13,48.4,13.2,48.4,13.3z"/>
				<polygon fill="#8D8D8D" points="27,11.9 27,11.6 26.9,11.9 				"/>
			</g>
		</g>
	</g>
</g>
</svg>
